# xmcd
#
# Track frame offsets:
#	150
#	12697
#	25725
#	40972
#	58285
#	69815
#	82800
#	92752
#	103047
#	113885
#
# Disc length: 1683 seconds
#
# Revision: 0
# Processed by: cddbd v1.4PL0 Copyright (c) Steve Scherf et al.
# Submitted via: dBpowerAMP V4.0
#
DISCID=7b06910a
DTITLE=Charlie Rich - Rich Sounds of Charlie Rich
DYEAR=1900
DGENRE=Country
TTITLE0=Behind Closed Doors
TTITLE1=The Most Beautiful Girl
TTITLE2=On My Knees
TTITLE3=My Exclusive Dreams
TTITLE4=Rolling with The Flow
TTITLE5=Good Time Charlie's Got The Blues
TTITLE6=Mohair Sam
TTITLE7=Lonely Weekends
TTITLE8=There Wont Be Anymore
TTITLE9=Who Will The Next Fool Be
EXTD=
EXTT0=
EXTT1=
EXTT2=
EXTT3=
EXTT4=
EXTT5=
EXTT6=
EXTT7=
EXTT8=
EXTT9=
PLAYORDER=
